<?xml version="1.0" encoding="utf-8"?>
<?xml-stylesheet type="text/xsl" href="rss1.xsl"?>
<rss version="2.0" xmlns:atom="http://www.w3.org/2005/Atom" xmlns:content="http://purl.org/rss/1.0/modules/content/" xmlns:dc="http://purl.org/dc/elements/1.1/" xmlns:media="http://search.yahoo.com/mrss/">
<channel>
 <title>Getty</title>
 <link>http://www.gettyimg.com/</link>
 <atom:link href="http://www.gettyimg.com/" rel="self" type="application/rss+xml" />

 
                <item>
                <title><![CDATA[【Cinema Center】MOVIE - Una Pelicula De Huevos 1080p NF WEB-DL LATINO]]></title>
                <link><![CDATA[https://sharemania.us/threads/una-pelicula-de-huevos-1080p-nf-web-dl-latino.249654/]]></link>
                <description><![CDATA[<article>
<blockquote class="messageText SelectQuoteContainer ugc baseHtml">
<img src="https://m.media-amazon.com/images/S/pv-target-images/9c9cb7d5b6f2db40e3a09aed9e4e8cf4514b21c048772bc3bfc6c2b3e373a8b9.jpg" class="bbCodeImage LbImage" alt="[​IMG]" data-url="https://m.media-amazon.com/images/S/pv-target-images/9c9cb7d5b6f2db40e3a09aed9e4e8cf4514b21c048772bc3bfc6c2b3e373a8b9.jpg" style=""> <br>
<br>
Sinopsis: Un huevito llamado Toto sueña con llegar a ser un pollo, para lo que debe escaparse con otro huevo y una tira de tocino después de ser vendidos en un supermercado.<br>
<br>
<div class="ToggleTriggerAnchor bbCodeSpoilerContainer">
<button type="button" class="button bbCodeSpoilerButton ToggleTrigger Tooltip JsOnly" data-target="> .SpoilerTarget"><span>Spoiler: <span class="SpoilerTitle">Media Info</span></span></button>
<div class="SpoilerTarget bbCodeSpoilerText">Video<br>
ID : 1<br>
Format : AVC<br>
Format/Info : Advanced Video Codec<br>
Format profile : Main@L4<br>
Format settings, CABAC : Yes<br>
Format settings, RefFrames : 3 frames<br>
Codec ID : V_MPEG4/ISO/AVC<br>
Duration : 1 h 29 min<br>
Bit rate mode : Variable<br>
Bit rate : 5 000 kb/s<br>
Maximum bit rate : 7 500 kb/s<br>
Width : 1 920 pixels<br>
Height : 1 080 pixels<br>
Display aspect ratio : 16:9<br>
Frame rate mode : Constant<br>
Frame rate : 23.976 (24000/1001) FPS<br>
Color space : YUV<br>
Chroma subsampling : 4:2:0<br>
Bit depth : 8 bits<br>
Scan type : Progressive<br>
Bits/(Pixel*Frame) : 0.101<br>
Stream size : 3.13 GiB (97%)<br>
Writing library : x264 core 148 r2727 7d026e8<br>
Encoding settings : cabac=1 / ref=3 / deblock=1:0:0 / analyse=0x1:0x111 / me=umh / subme=10 / psy=1 / psy_rd=1.00:0.00 / mixed_ref=1 / me_range=24 / chroma_me=1 / trellis=2 / 8x8dct=0 / cqm=0 / deadzone=21,11 / fast_pskip=1 / chroma_qp_offset=-2 / threads=6 / lookahead_threads=1 / sliced_threads=0 / nr=0 / decimate=1 / interlaced=0 / bluray_compat=0 / stitchable=1 / constrained_intra=0 / bframes=2 / b_pyramid=0 / b_adapt=2 / b_bias=0 / direct=3 / weightb=1 / open_gop=0 / weightp=2 / keyint=240 / keyint_min=121 / scenecut=0 / intra_refresh=0 / rc_lookahead=48 / rc=2pass / mbtree=1 / bitrate=5000 / ratetol=1.0 / qcomp=0.50 / qpmin=6 / qpmax=51 / qpstep=4 / cplxblur=20.0 / qblur=0.5 / vbv_maxrate=7500 / vbv_bufsize=10000 / nal_hrd=vbr / filler=0 / ip_ratio=1.40 / aq=1:1.00<br>
Default : Yes<br>
Forced : No<br>
<br>
Audio<br>
ID : 2<br>
Format : E-AC-3<br>
Format/Info : Enhanced Audio Coding 3<br>
Format settings, Endianness : Big<br>
Codec ID : A_EAC3<br>
Duration : 1 h 29 min<br>
Bit rate mode : Constant<br>
Bit rate : 128 kb/s<br>
Channel(s) : 2 channels<br>
Channel positions : Front: L R<br>
Sampling rate : 48.0 kHz<br>
Frame rate : 187.500 FPS (256 SPF)<br>
Compression mode : Lossy<br>
Stream size : 82.3 MiB (2%)<br>
Title : Spanish (Latin America)<br>
Language : Spanish<br>
Service kind : Complete Main<br>
Default : Yes<br>
Forced : No</div>
</div><br>
Captura<br>
<br>
<img src="https://i.ibb.co/THfk0vz/Una-pelicula-de-huevos-2006-1080p-mkv-thumbs-2024-07-12-13-17-46.png" class="bbCodeImage LbImage" alt="[​IMG]" data-url="https://i.ibb.co/THfk0vz/Una-pelicula-de-huevos-2006-1080p-mkv-thumbs-2024-07-12-13-17-46.png" style=""> <br>
<br>
<div class="bbCodeBlock bbCodeVfcHH HiddenContent">
<div class="attribution type">Hidden Content:</div>
<blockquote>You must reply before you can see the hidden data contained here.</blockquote>
</div>
<div class="messageTextEndMarker">&nbsp;</div>
</blockquote>
</article>]]></description>
                <author><![CDATA[santibg0604]]></author>
                </item>

                
                <item>
                <title><![CDATA[【SD】Dante Thomas Feat. Pras - Miss California (2001, DVD-Rip, Hip-Hop)]]></title>
                <link><![CDATA[https://sharemania.us/threads/dante-thomas-feat-pras-miss-california-2001-dvd-rip-hip-hop.249653/]]></link>
                <description><![CDATA[<article>
<blockquote class="messageText SelectQuoteContainer ugc baseHtml">
Dante Thomas Feat. Pras - Miss California (2001, DVD-Rip, Hip-Hop)<br>
<br>
<img src="https://images2.imgbox.com/19/7d/C0lzeJFe_o.jpg" class="bbCodeImage LbImage" alt="[​IMG]" data-url="https://images2.imgbox.com/19/7d/C0lzeJFe_o.jpg" style=""> <br>
<br>
<span data-s9e-mediaembed="youtube" style="display:inline-block;width:100%;max-width:640px"><span style="display:block;overflow:hidden;position:relative;padding-bottom:56.25%"><iframe allowfullscreen="" loading="lazy" scrolling="no" style="background:url(https://i.ytimg.com/vi/pmutPFNVJV0/hqdefault.jpg) 50% 50% / cover;border:0;height:100%;left:0;position:absolute;width:100%" src="https://www.youtube.com/embed/pmutPFNVJV0"></iframe></span></span><br>
<br>
<div class="bbCodeBlock bbCodeVfcHH HiddenContent">
<div class="attribution type">Hidden Content:</div>
<blockquote>You must reply before you can see the hidden data contained here.</blockquote>
</div>Greets, 3rsin.
<div class="messageTextEndMarker">&nbsp;</div>
</blockquote>
</article>]]></description>
                <author><![CDATA[fritching]]></author>
                </item>

                
                <item>
                <title><![CDATA[【SD】Deichkind Feat. Nina MC - Bon Voyage (2000, TV-Rip, German Hip-Hop)]]></title>
                <link><![CDATA[https://sharemania.us/threads/deichkind-feat-nina-mc-bon-voyage-2000-tv-rip-german-hip-hop.249652/]]></link>
                <description><![CDATA[<article>
<blockquote class="messageText SelectQuoteContainer ugc baseHtml">
Deichkind Feat. Nina MC - Bon Voyage (2000, TV-Rip, German Hip-Hop)<br>
<br>
<img src="https://images2.imgbox.com/8f/4e/P7FBb3DS_o.jpg" class="bbCodeImage LbImage" alt="[​IMG]" data-url="https://images2.imgbox.com/8f/4e/P7FBb3DS_o.jpg" style=""> <br>
<br>
<span data-s9e-mediaembed="youtube" style="display:inline-block;width:100%;max-width:640px"><span style="display:block;overflow:hidden;position:relative;padding-bottom:56.25%"><iframe allowfullscreen="" loading="lazy" scrolling="no" style="background:url(https://i.ytimg.com/vi/OntgdM84SDQ/hqdefault.jpg) 50% 50% / cover;border:0;height:100%;left:0;position:absolute;width:100%" src="https://www.youtube.com/embed/OntgdM84SDQ"></iframe></span></span><br>
<br>
<div class="bbCodeBlock bbCodeVfcHH HiddenContent">
<div class="attribution type">Hidden Content:</div>
<blockquote>You must reply before you can see the hidden data contained here.</blockquote>
</div>Greets, 3rsin.
<div class="messageTextEndMarker">&nbsp;</div>
</blockquote>
</article>]]></description>
                <author><![CDATA[fritching]]></author>
                </item>

                
                <item>
                <title><![CDATA[【Albums (lossless)】FLAC - (2022) ††† (Crosses) - PERMANENT.RADIANT EP [16bit 44.1kHz FLAC]]]></title>
                <link><![CDATA[https://sharemania.us/threads/2022-%E2%80%A0%E2%80%A0%E2%80%A0-crosses-permanent-radiant-ep-16bit-44-1khz-flac.249649/]]></link>
                <description><![CDATA[<article>
<blockquote class="messageText SelectQuoteContainer ugc baseHtml">
<img src="https://i.imgur.com/Q2rB93t.jpg" class="bbCodeImage LbImage" alt="[​IMG]" data-url="https://i.imgur.com/Q2rB93t.jpg" style=""><br>
<br>
Permanent Radiant (stylized as PERMANENT.RADIANT) is an EP by the American music group Crosses. The EP was released on December 9, 2022 through Warner Records. The band promoted the EP with music videos for the songs "Vivien", "Sensation", and "Holier". At the time of release, Crosses described the release as a precursor to a full length album to be released at a later date.<br>
<br>
<div class="bbCodeBlock bbCodeCode">
<div class="type">Code:</div>
<pre>1. SENSATION

2. VIVIEN

3. CADAVRE EXQUIS

4. DAY ONE

5. HOLIER

6. PROCESSION</pre>
</div>
<div class="bbCodeBlock bbCodeVfcHH HiddenContent">
<div class="attribution type">Hidden Content:</div>
<blockquote>You must reply before you can see the hidden data contained here.</blockquote>
</div>
<div class="messageTextEndMarker">&nbsp;</div>
</blockquote>
</article>]]></description>
                <author><![CDATA[trin806]]></author>
                </item>

                </channel></rss>